name rise30.8019peak61.5557fall86.2505.mot
datacolumns 19
datarows 35
range 11.75162600000000 11.80829200000000
endheader
time	ground_force1_vx	ground_force1_vy	ground_force1_vz	ground_force1_px	ground_force1_py	ground_force1_pz	ground_force2_vx	ground_force2_vy	ground_force2_vz	ground_force2_px	ground_force2_py	ground_force2_pz	ground_torque1_x	ground_torque1_y	ground_torque1_z	ground_torque2_x	ground_torque2_y	ground_torque2_z	
11.75162600000000	-46.60052700000000	770.23377300000004	46.67093600000000	0.01324000000000	0.00000000000000	0.09529700000000	-10.01053800000000	44.38048700000000	10.96549300000000	0.28297800000000	0.00000000000000	-0.07420200000000	0.00000000000000	11.20728800000000	0.00000000000000	0.00000000000000	4.95046700000000	0.00000000000000	
11.75328900000000	-46.65513500000000	767.86433399999999	46.42740100000000	0.01273700000000	0.00000000000000	0.09522300000000	-10.91884300000000	50.26560200000000	12.13847200000000	0.28635500000000	0.00000000000000	-0.07442500000000	0.00000000000000	11.11679400000000	0.00000000000000	0.00000000000000	5.55155200000000	0.00000000000000	
11.75496300000000	-46.72289100000000	765.41565700000001	46.16648300000000	0.01223800000000	0.00000000000000	0.09514500000000	-11.68156600000000	55.97334300000000	13.19427200000000	0.28950900000000	0.00000000000000	-0.07465100000000	0.00000000000000	11.02966200000000	0.00000000000000	0.00000000000000	6.11136800000000	0.00000000000000	
11.75662200000000	-46.80449300000000	762.88871400000005	45.88821000000000	0.01174100000000	0.00000000000000	0.09506100000000	-12.28472700000000	61.44153000000000	14.11649400000000	0.29246000000000	0.00000000000000	-0.07488000000000	0.00000000000000	10.94604600000000	0.00000000000000	0.00000000000000	6.62066500000000	0.00000000000000	
11.75829100000000	-46.90060000000000	760.28445299999998	45.59263300000000	0.01124700000000	0.00000000000000	0.09497200000000	-12.72310600000000	66.63526400000001	14.89713400000000	0.29522000000000	0.00000000000000	-0.07511200000000	0.00000000000000	10.86609200000000	0.00000000000000	0.00000000000000	7.07386100000000	0.00000000000000	
11.75995800000000	-47.01183200000000	757.60379100000000	45.27982000000000	0.01075500000000	0.00000000000000	0.09487800000000	-12.99950500000000	71.54580700000000	15.53600500000000	0.29780200000000	0.00000000000000	-0.07534800000000	0.00000000000000	10.78993200000000	0.00000000000000	0.00000000000000	7.46893200000000	0.00000000000000	
11.76162500000000	-47.13876100000000	754.84760500000004	44.94986300000000	0.01026500000000	0.00000000000000	0.09478000000000	-13.12347600000000	76.18750199999999	16.03962200000000	0.30021800000000	0.00000000000000	-0.07558900000000	0.00000000000000	10.71768900000000	0.00000000000000	0.00000000000000	7.80701800000000	0.00000000000000	
11.76328800000000	-47.28191100000000	752.01673100000005	44.60287200000000	0.00977500000000	0.00000000000000	0.09467600000000	-13.10970200000000	80.59331299999999	16.41971800000000	0.30247800000000	0.00000000000000	-0.07583400000000	0.00000000000000	10.64947500000000	0.00000000000000	0.00000000000000	8.09183200000000	0.00000000000000	
11.76496100000000	-47.44175600000000	749.11195599999996	44.23897800000000	0.00928500000000	0.00000000000000	0.09456700000000	-12.97624300000000	84.80959700000000	16.69159200000000	0.30458900000000	0.00000000000000	-0.07608300000000	0.00000000000000	10.58538600000000	0.00000000000000	0.00000000000000	8.32895800000000	0.00000000000000	
11.76662100000000	-47.61871500000000	746.13401299999998	43.85832800000000	0.00879600000000	0.00000000000000	0.09445400000000	-12.74280300000000	88.89068700000000	16.87244600000000	0.30656000000000	0.00000000000000	-0.07633600000000	0.00000000000000	10.52550900000000	0.00000000000000	0.00000000000000	8.52511300000000	0.00000000000000	
11.76828900000000	-47.81314800000000	743.08357400000000	43.46109100000000	0.00830500000000	0.00000000000000	0.09433500000000	-12.42915600000000	92.89373600000000	16.97985000000000	0.30839700000000	0.00000000000000	-0.07659500000000	0.00000000000000	10.46991800000000	0.00000000000000	0.00000000000000	8.68744300000000	0.00000000000000	
11.76996100000000	-48.02535500000000	739.96125099999995	43.04745100000000	0.00781200000000	0.00000000000000	0.09421200000000	-12.05383300000000	96.87421200000000	17.03044400000000	0.31010700000000	0.00000000000000	-0.07685700000000	0.00000000000000	10.41867300000000	0.00000000000000	0.00000000000000	8.82289600000000	0.00000000000000	
11.77162300000000	-48.25557200000000	736.76758400000006	42.61761300000000	0.00731700000000	0.00000000000000	0.09408300000000	-11.63312800000000	100.88226700000000	17.03892300000000	0.31169400000000	0.00000000000000	-0.07712500000000	0.00000000000000	10.37182100000000	0.00000000000000	0.00000000000000	8.93773000000000	0.00000000000000	
11.77328800000000	-48.50396700000000	733.50304400000005	42.17179500000000	0.00681900000000	0.00000000000000	0.09395000000000	-11.18043700000000	104.96011600000000	17.01734500000000	0.31316500000000	0.00000000000000	-0.07739700000000	0.00000000000000	10.32939700000000	0.00000000000000	0.00000000000000	9.03714700000000	0.00000000000000	
11.77495500000000	-48.77064300000000	730.16802600000005	41.71023300000000	0.00631700000000	0.00000000000000	0.09381200000000	-10.70593100000000	109.14045000000000	16.97476000000000	0.31452300000000	0.00000000000000	-0.07767400000000	0.00000000000000	10.29142200000000	0.00000000000000	0.00000000000000	9.12508300000000	0.00000000000000	
11.77663000000000	-49.05562700000000	726.76284499999997	41.23318100000000	0.00581000000000	0.00000000000000	0.09366900000000	-10.21652200000000	113.44581100000001	16.91712200000000	0.31577200000000	0.00000000000000	-0.07795500000000	0.00000000000000	10.25790300000000	0.00000000000000	0.00000000000000	9.20412300000000	0.00000000000000	
11.77829600000000	-49.35887400000000	723.28773699999999	40.74090500000000	0.00529800000000	0.00000000000000	0.09352200000000	-9.71607600000000	117.88880600000000	16.84744600000000	0.31691700000000	0.00000000000000	-0.07824000000000	0.00000000000000	10.22883500000000	0.00000000000000	0.00000000000000	9.27554500000000	0.00000000000000	
11.77996300000000	-49.68026400000000	719.74285399999997	40.23368900000000	0.00478000000000	0.00000000000000	0.09337000000000	-9.20580400000000	122.47299099999999	16.76615400000000	0.31796200000000	0.00000000000000	-0.07853000000000	0.00000000000000	10.20419900000000	0.00000000000000	0.00000000000000	9.33944800000000	0.00000000000000	
11.78162300000000	-50.01959700000000	716.12826500000006	39.71183000000000	0.00425500000000	0.00000000000000	0.09321400000000	-8.68477900000000	127.19423500000001	16.67154400000000	0.31890900000000	0.00000000000000	-0.07882400000000	0.00000000000000	10.18396200000000	0.00000000000000	0.00000000000000	9.39495300000000	0.00000000000000	
11.78329400000000	-50.37659800000000	712.44395199999997	39.17564000000000	0.00372300000000	0.00000000000000	0.09305300000000	-8.15051400000000	132.04236900000001	16.56033400000000	0.31976200000000	0.00000000000000	-0.07912200000000	0.00000000000000	10.16807800000000	0.00000000000000	0.00000000000000	9.44043900000000	0.00000000000000	
11.78495700000000	-50.75090600000000	708.68980999999997	38.62544300000000	0.00318200000000	0.00000000000000	0.09288900000000	-7.59953800000000	137.00295499999999	16.42821600000000	0.32052400000000	0.00000000000000	-0.07942300000000	0.00000000000000	10.15648800000000	0.00000000000000	0.00000000000000	9.47380000000000	0.00000000000000	
11.78663500000000	-51.14208300000000	704.86564999999996	38.06158000000000	0.00263200000000	0.00000000000000	0.09272000000000	-7.02794200000000	142.05900800000001	16.27038900000000	0.32119800000000	0.00000000000000	-0.07972800000000	0.00000000000000	10.14911900000000	0.00000000000000	0.00000000000000	9.49268700000000	0.00000000000000	
11.78829600000000	-51.54960600000000	700.97119699999996	37.48440000000000	0.00207200000000	0.00000000000000	0.09254700000000	-6.43185000000000	147.19256999999999	16.08202200000000	0.32178500000000	0.00000000000000	-0.08003700000000	0.00000000000000	10.14588700000000	0.00000000000000	0.00000000000000	9.49472800000000	0.00000000000000	
11.78996200000000	-51.97286900000000	697.00609099999997	36.89427000000000	0.00150200000000	0.00000000000000	0.09237100000000	-5.80779500000000	152.38603200000000	15.85864400000000	0.32229000000000	0.00000000000000	-0.08034800000000	0.00000000000000	10.14669400000000	0.00000000000000	0.00000000000000	9.47771300000000	0.00000000000000	
11.79162200000000	-52.41118500000000	692.96989199999996	36.29156400000000	0.00092100000000	0.00000000000000	0.09219000000000	-5.15300000000000	157.62316600000000	15.59642600000000	0.32271500000000	0.00000000000000	-0.08066200000000	0.00000000000000	10.15142700000000	0.00000000000000	0.00000000000000	9.43973600000000	0.00000000000000	
11.79328900000000	-52.86378000000000	688.86207800000000	35.67667300000000	0.00032800000000	0.00000000000000	0.09200700000000	-4.46554700000000	162.88984700000000	15.29237300000000	0.32306100000000	0.00000000000000	-0.08097900000000	0.00000000000000	10.15996400000000	0.00000000000000	0.00000000000000	9.37928700000000	0.00000000000000	
11.79495400000000	-53.32980200000000	684.68205100000000	35.04999700000000	-0.00027700000000	0.00000000000000	0.09181900000000	-3.74445500000000	168.17447400000000	14.94442200000000	0.32333200000000	0.00000000000000	-0.08129900000000	0.00000000000000	10.17216900000000	0.00000000000000	0.00000000000000	9.29530600000000	0.00000000000000	
11.79662700000000	-53.80831200000000	680.42913999999996	34.41194700000000	-0.00089500000000	0.00000000000000	0.09162900000000	-2.98967100000000	173.46811000000000	14.55145700000000	0.32353000000000	0.00000000000000	-0.08162000000000	0.00000000000000	10.18789400000000	0.00000000000000	0.00000000000000	9.18719300000000	0.00000000000000	
11.79829100000000	-54.29829200000000	676.10260600000004	33.76294800000000	-0.00152600000000	0.00000000000000	0.09143500000000	-2.20200300000000	178.76440299999999	14.11325500000000	0.32365600000000	0.00000000000000	-0.08194300000000	0.00000000000000	10.20697800000000	0.00000000000000	0.00000000000000	9.05479200000000	0.00000000000000	
11.79995800000000	-54.79864400000000	671.70164199999999	33.10343300000000	-0.00217200000000	0.00000000000000	0.09123900000000	-1.38299400000000	184.05932500000000	13.63038700000000	0.32371400000000	0.00000000000000	-0.08226700000000	0.00000000000000	10.22925100000000	0.00000000000000	0.00000000000000	8.89834000000000	0.00000000000000	
11.80162800000000	-55.30819100000000	667.22538399999996	32.43385000000000	-0.00283100000000	0.00000000000000	0.09104000000000	-0.53477400000000	189.35079400000001	13.10408500000000	0.32370600000000	0.00000000000000	-0.08259300000000	0.00000000000000	10.25453000000000	0.00000000000000	0.00000000000000	8.71841200000000	0.00000000000000	
11.80328900000000	-55.82568000000000	662.67291299999999	31.75465500000000	-0.00350500000000	0.00000000000000	0.09083800000000	0.34010300000000	194.63822700000000	12.53609100000000	0.32363200000000	0.00000000000000	-0.08291900000000	0.00000000000000	10.28262000000000	0.00000000000000	0.00000000000000	8.51585100000000	0.00000000000000	
11.80495500000000	-56.34978200000000	658.04326300000002	31.06631500000000	-0.00419500000000	0.00000000000000	0.09063400000000	1.23881900000000	199.92207600000000	11.92851200000000	0.32349700000000	0.00000000000000	-0.08324600000000	0.00000000000000	10.31331800000000	0.00000000000000	0.00000000000000	8.29169600000000	0.00000000000000	
11.80662600000000	-56.87909900000000	653.33542499999999	30.36931000000000	-0.00489900000000	0.00000000000000	0.09042800000000	2.15844200000000	205.20338300000000	11.28367400000000	0.32330200000000	0.00000000000000	-0.08357200000000	0.00000000000000	10.34640700000000	0.00000000000000	0.00000000000000	8.04711400000000	0.00000000000000	
11.80829200000000	-57.41216100000000	648.54835300000002	29.66412900000000	-0.00562000000000	0.00000000000000	0.09022000000000	3.09604900000000	210.48339400000000	10.60400400000000	0.32304900000000	0.00000000000000	-0.08389900000000	0.00000000000000	10.38166200000000	0.00000000000000	0.00000000000000	7.78334600000000	0.00000000000000	
